<?xml version="1.0" standalone="no"?><!DOCTYPE svg PUBLIC "-//W3C//DTD SVG 1.1//EN" "http://www.w3.org/Graphics/SVG/1.1/DTD/svg11.dtd"><svg t="1512887722560" class="icon" style="" viewBox="0 0 1024 1024" version="1.1" xmlns="http://www.w3.org/2000/svg" p-id="4749" xmlns:xlink="http://www.w3.org/1999/xlink" width="200" height="200"><defs><style type="text/css"></style></defs><path d="M895.875985 259.40803a23.947999 23.947999 0 0 0-6.98-16.255999L652.765995 7.02204c-0.01-0.01-0.02-0.014-0.028-0.024A23.899999 23.899999 0 0 0 635.813995 0.00004H178.556013C150.722014 0.00004 128.080015 22.640039 128.080015 50.474038v923.049964c0 27.831999 22.639999 50.473998 50.473998 50.473998h666.887974c27.831999 0 50.473998-22.639999 50.473998-50.473998v-713.419972c0.004-0.236-0.024-0.464-0.04-0.696zM659.789994 81.862037l154.269994 154.269994h-144.151994a10.128 10.128 0 0 1-10.118-10.118V81.862037z m188.177993 891.665965a2.528 2.528 0 0 1-2.524 2.52H178.556013a2.526 2.526 0 0 1-2.522-2.522V50.474038c0-1.39 1.132-2.522 2.522-2.522h433.281983v178.061993c0 32.017999 26.049999 58.069998 58.069998 58.069998h178.061993v689.443973z" p-id="4750"></path></svg>