
<?xml version="1.0" standalone="no"?><!DOCTYPE svg PUBLIC "-//W3C//DTD SVG 1.1//EN" "http://www.w3.org/Graphics/SVG/1.1/DTD/svg11.dtd"><svg t="1512890904643" class="icon" style="" viewBox="0 0 1024 1024" version="1.1" xmlns="http://www.w3.org/2000/svg" p-id="2394" xmlns:xlink="http://www.w3.org/1999/xlink" width="200" height="200"><defs><style type="text/css"></style></defs><path d="M930.5088 179.6096 786.2272 35.9424C768.1024 17.3056 738.304 17.6128 719.9744 35.84L94.0032 662.2208C93.3888 662.7328 92.0576 667.2384 91.8528 668.4672L29.184 899.1744C25.4976 912.4864 29.2864 926.9248 39.2192 937.0624 46.6944 944.3328 56.4224 948.3264 66.8672 948.4288 70.3488 948.4288 73.8304 947.9168 77.312 947.2L305.9712 884.5312C306.2784 884.5312 311.6032 883.4048 313.6512 881.664L939.6224 255.1808C957.8496 236.8512 948.8384 198.144 930.5088 179.6096L930.5088 179.6096 930.5088 179.6096ZM89.1904 885.4528 136.9088 704.512 273.408 841.4208 89.1904 885.4528 89.1904 885.4528ZM185.856 655.6672 604.5696 237.7728 741.1712 374.5792 322.3552 792.576 185.856 655.6672 185.856 655.6672ZM649.6256 192.9216 748.544 94.208 885.1456 231.0144 786.1248 329.8304 649.6256 192.9216 649.6256 192.9216Z" p-id="2395"></path></svg>