
<?xml version="1.0" standalone="no"?><!DOCTYPE svg PUBLIC "-//W3C//DTD SVG 1.1//EN" "http://www.w3.org/Graphics/SVG/1.1/DTD/svg11.dtd"><svg t="1512921654382" class="icon" style="" viewBox="0 0 1024 1024" version="1.1" xmlns="http://www.w3.org/2000/svg" p-id="6152" xmlns:xlink="http://www.w3.org/1999/xlink" width="200" height="200"><defs><style type="text/css"></style></defs><path d="M204.8 163.84c81.92 51.2 486.4 307.2 558.08 353.28-56.32 35.84-471.04 291.84-558.08 348.16V163.84M194.56 102.4c-20.48 0-40.96 20.48-40.96 46.08v727.04c0 30.72 20.48 46.08 40.96 46.08 5.12 0 15.36 0 20.48-5.12 35.84-20.48 547.84-343.04 583.68-363.52 25.6-20.48 30.72-61.44 0-76.8-46.08-30.72-552.96-353.28-578.56-368.64C209.92 102.4 204.8 102.4 194.56 102.4z" p-id="6153"></path></svg>